<svg width="384" height="463" viewBox="0 0 384 463" fill="none" xmlns="http://www.w3.org/2000/svg">
<path d="M14.1695 0H242.974C246.732 0 250.336 1.49285 252.993 4.15015C255.651 6.80744 257.143 10.4115 257.143 14.1695V448.342C257.143 452.1 255.651 455.704 252.993 458.361C250.336 461.018 246.732 462.511 242.974 462.511H14.1695C10.4115 462.511 6.80743 461.018 4.15014 458.361C1.49284 455.704 2.62036e-07 452.1 2.62036e-07 448.342V14.1722C-0.000357621 12.3112 0.36588 10.4684 1.0778 8.74895C1.78973 7.02951 2.83338 5.46715 4.14918 4.15111C5.46497 2.83506 7.02711 1.7911 8.74641 1.07885C10.4657 0.366594 12.3085 -3.44118e-08 14.1695 0Z" fill="#263238"/>
<path d="M248.55 15.4935V446.19C248.55 447.025 248.385 447.851 248.063 448.622C247.741 449.392 247.268 450.09 246.674 450.676C246.079 451.262 245.374 451.724 244.599 452.035C243.824 452.345 242.995 452.499 242.16 452.486H14.4674C13.7093 452.496 12.957 452.352 12.2555 452.065C11.554 451.777 10.9177 451.351 10.3848 450.811C9.85181 450.272 9.43312 449.631 9.15374 448.926C8.87435 448.221 8.74003 447.467 8.75878 446.709V14.9758C8.73178 14.3072 8.837 13.64 9.06837 13.0122C9.29975 12.3844 9.65275 11.8085 10.1071 11.3174C10.5615 10.8263 11.1084 10.4297 11.7163 10.1503C12.3243 9.87098 12.9814 9.71437 13.65 9.68945H70.5731C71.3694 9.70402 72.1432 9.95544 72.796 10.4116C73.4487 10.8678 73.9508 11.5081 74.2381 12.2509L76.5952 18.0549C76.8862 18.7929 77.3899 19.4279 78.0425 19.8791C78.695 20.3303 79.4669 20.5774 80.2602 20.5891H177.168C177.958 20.5858 178.729 20.3467 179.382 19.9024C180.035 19.4582 180.54 18.8291 180.833 18.0958L183.191 12.2645C183.477 11.5201 183.979 10.8779 184.631 10.4193C185.284 9.96079 186.058 9.70673 186.856 9.68945H242.961C244.468 9.73117 245.897 10.3628 246.943 11.4484C247.988 12.5339 248.565 13.9866 248.55 15.4935Z" fill="#407BFF"/>
<path opacity="0.3" d="M248.549 36.5981H8.75732V423.875H248.549V36.5981Z" fill="white"/>
<path opacity="0.6" d="M123.221 13.548C125.039 13.548 126.512 12.0742 126.512 10.2563C126.512 8.43834 125.039 6.9646 123.221 6.9646C121.403 6.9646 119.929 8.43834 119.929 10.2563C119.929 12.0742 121.403 13.548 123.221 13.548Z" fill="white"/>
<path opacity="0.6" d="M133.174 10.2567C133.174 10.6738 133.051 11.0816 132.819 11.4284C132.587 11.7752 132.258 12.0456 131.872 12.2052C131.487 12.3648 131.063 12.4066 130.654 12.3252C130.245 12.2438 129.869 12.043 129.574 11.748C129.279 11.453 129.078 11.0772 128.997 10.6681C128.915 10.259 128.957 9.83494 129.117 9.44956C129.276 9.06417 129.547 8.73478 129.894 8.50303C130.24 8.27128 130.648 8.14758 131.065 8.14758C131.342 8.1474 131.617 8.20184 131.873 8.30777C132.129 8.41369 132.361 8.56904 132.557 8.76492C132.753 8.9608 132.908 9.19337 133.014 9.44934C133.12 9.7053 133.175 9.97964 133.174 10.2567Z" fill="white"/>
<path opacity="0.6" d="M35.8012 27.0463H38.7632V23.0979H35.8012V27.0463Z" fill="white"/>
<path opacity="0.6" d="M30.9747 27.0476H33.9366V21.7817H30.9747V27.0476Z" fill="white"/>
<path opacity="0.6" d="M26.1509 27.0476H29.1129V20.4642H26.1509V27.0476Z" fill="white"/>
<path opacity="0.6" d="M21.3217 27.0476H24.2837V19.1468H21.3217V27.0476Z" fill="white"/>
<path opacity="0.6" d="M222.029 21.6572H220.274V25.6056H222.029V21.6572Z" fill="white"/>
<path opacity="0.6" d="M223.238 27.0463H237.225V20.2149H223.238V27.0463Z" fill="white"/>
<path d="M77.0972 170.915C107.084 170.915 131.392 146.607 131.392 116.62C131.392 86.634 107.084 62.3253 77.0972 62.3253C47.1109 62.3253 22.8022 86.634 22.8022 116.62C22.8022 146.607 47.1109 170.915 77.0972 170.915Z" fill="white"/>
<path d="M51.9114 302.108L51.9673 290.851C51.9665 290.667 51.9035 290.488 51.7885 290.345C51.6735 290.201 51.5132 290.1 51.3337 290.058L43.0923 288.19C42.9167 288.152 42.7353 288.148 42.5583 288.18C42.3814 288.212 42.2125 288.278 42.0615 288.376C41.9104 288.473 41.78 288.6 41.678 288.748C41.576 288.896 41.5042 289.062 41.4669 289.238C41.4449 289.336 41.4343 289.437 41.4355 289.538C41.4764 293.181 41.6876 295.834 41.6658 300.407C41.6508 303.224 41.3157 311.716 41.2966 315.611C41.2775 319.506 45.1114 320.027 45.4793 318.437C47.0693 311.302 49.2533 305.938 51.3147 303.661C51.7056 303.239 51.9193 302.683 51.9114 302.108Z" fill="#263238"/>
<path d="M102.168 198.458L105.803 217.532C105.803 217.532 134.538 264.035 134.526 290.889C134.507 322.966 50.8362 304.461 50.8362 304.461V289.692C50.8362 289.692 100.85 293.99 105.357 288.974C110.828 282.884 77.1042 235.755 77.1042 235.755L102.168 198.458Z" fill="#263238"/>
<path opacity="0.2" d="M134.525 290.893C134.514 308.575 109.076 310.883 86.2532 309.394C74.8824 308.581 63.5751 307.043 52.4004 304.789C51.3881 304.583 50.8308 304.459 50.8308 304.459V289.688C50.8308 289.688 51.4902 289.745 52.6729 289.835C58.3584 290.29 76.0648 291.575 89.459 291.383C97.4184 291.268 103.866 290.62 105.356 288.971C108.04 285.98 101.262 273.074 93.6771 260.725V260.714C85.8199 247.944 77.0975 235.752 77.0975 235.752L88.0829 219.403L102.16 198.457L105.799 217.531C105.799 217.531 134.536 264.034 134.525 290.893Z" fill="white"/>
<path opacity="0.2" d="M89.461 291.382L86.2538 309.394C74.883 308.581 63.5758 307.043 52.401 304.789L52.6735 289.835C58.3644 290.29 76.0654 291.574 89.461 291.382Z" fill="black"/>
<path opacity="0.2" d="M88.1305 239.801C88.1305 239.801 92.8037 250.798 93.6798 260.714C85.8225 247.943 77.1001 235.752 77.1001 235.752L88.0855 219.403L93.8732 217.527C93.8732 217.527 95.1512 225.036 88.1305 239.801Z" fill="black"/>
<path d="M80.6551 401.249H69.3999C69.216 401.251 69.0381 401.315 68.895 401.43C68.7519 401.546 68.6518 401.706 68.6111 401.885L66.784 410.136C66.7463 410.312 66.7437 410.493 66.7764 410.67C66.809 410.847 66.8763 411.015 66.9743 411.166C67.0723 411.316 67.1991 411.446 67.3474 411.547C67.4958 411.649 67.6627 411.72 67.8386 411.756C67.9374 411.778 68.0385 411.788 68.1397 411.786C71.7815 411.728 74.4342 411.504 79.0066 411.504C81.8241 411.504 90.3231 411.798 94.2129 411.798C98.1027 411.798 98.6095 407.955 97.0182 407.602C89.8748 406.046 84.5 403.889 82.2124 401.838C81.7884 401.448 81.2306 401.238 80.6551 401.249Z" fill="#263238"/>
<path d="M52.0303 199.067C52.0303 199.067 49.5316 208.407 52.0303 251.208C55.8684 316.922 68.05 404.41 68.05 404.41L82.21 401.838C82.21 401.838 80.4034 270.97 82.3054 234.855C82.3054 234.855 102.317 216.907 102.167 198.458C102.017 180.009 52.0303 199.067 52.0303 199.067Z" fill="#263238"/>
<path opacity="0.2" d="M52.0303 199.067C52.0303 199.067 49.5316 208.407 52.0303 251.208C55.8684 316.922 68.05 404.41 68.05 404.41L82.21 401.838C82.21 401.838 80.4034 270.97 82.3054 234.855C82.3054 234.855 102.317 216.907 102.167 198.458C102.017 180.009 52.0303 199.067 52.0303 199.067Z" fill="white"/>
<path d="M101.535 193.174H52.0287V199.068L102.165 198.459L101.535 193.174Z" fill="#263238"/>
<path d="M67.9421 200.983H69.7106V190.522H67.9421V200.983Z" fill="#263238"/>
<path d="M92.9892 200.983H94.7577V190.522H92.9892V200.983Z" fill="#263238"/>
<path d="M78.9693 198.741H88.1263V192.143H78.9693V198.741Z" fill="white"/>
<path opacity="0.2" d="M67.9421 200.983H69.7106V190.522H67.9421V200.983Z" fill="white"/>
<path opacity="0.2" d="M92.9892 200.983H94.7577V190.522H92.9892V200.983Z" fill="white"/>
<path d="M96.6358 107.492C96.6358 107.492 65.3513 106.019 42.0438 111.901C42.0438 111.901 52.333 163.705 51.942 193.173H101.535C101.535 193.173 104.76 137.903 96.6358 107.492Z" fill="#407BFF"/>
<path opacity="0.6" d="M101.531 193.17H51.9596C52.0045 189.963 51.9133 186.506 51.732 182.867C51.2988 174.361 50.3328 164.935 49.1611 155.814C49.0476 154.929 48.934 154.042 48.8205 153.153C48.0234 147.229 47.1719 141.499 46.3408 136.267C44.101 122.224 42.0546 111.898 42.0546 111.898C65.3525 106.019 96.637 107.487 96.637 107.487C104.749 137.909 101.531 193.17 101.531 193.17Z" fill="white"/>
<path d="M60.3112 109.552C64.8072 113.64 75.8077 112.124 75.8077 112.124C75.8077 112.124 82.6771 110.244 81.2343 108.098C77.1878 107.429 75.23 105.541 74.422 103.125C73.9797 101.628 73.8407 100.056 74.0133 98.5041C74.0812 97.6385 74.1949 96.7771 74.3539 95.9236L60.7485 85.8483C62.5265 92.4984 64.7091 104.732 60.3112 109.552Z" fill="#EBB376"/>
<path opacity="0.2" d="M63.8885 92.2537C64.4335 100.416 71.1368 102.668 74.4216 103.126C73.9793 101.628 73.8404 100.057 74.0129 98.5046L63.8885 92.2537Z" fill="black"/>
<path d="M80.7878 64.8749C80.7878 64.8749 85.4474 76.8535 79.9322 83.0949C74.417 89.3363 69.2546 66.2537 69.2546 66.2537L80.7878 64.8749Z" fill="#263238"/>
<path d="M63.0288 97.2241C64.8649 98.9567 67.2188 100.039 69.7292 100.304C72.2397 100.57 74.7679 100.004 76.9258 98.6942C79.7488 97.0526 81.8407 94.3976 82.7761 91.2688C82.908 90.8333 83.0176 90.3913 83.1045 89.9445C84.6495 81.6431 82.7148 68.1576 73.5905 64.9831C71.5793 64.2721 69.4196 64.0873 67.3168 64.4464C65.214 64.8054 63.238 65.6963 61.5766 67.0344C59.9152 68.3724 58.6237 70.1132 57.8248 72.0911C57.0259 74.0691 56.7462 76.2185 57.0122 78.3351C58.0122 87.4213 58.1703 92.8071 63.0288 97.2241Z" fill="#EBB376"/>
<path d="M70.9887 80.1866C70.9737 80.925 71.4438 81.5095 71.9424 81.4836C72.4411 81.4578 72.7885 80.831 72.7599 80.0912C72.7313 79.3514 72.2926 78.7683 71.8062 78.7942C71.3198 78.8201 70.956 79.4359 70.9887 80.1866Z" fill="#263238"/>
<path d="M79.3853 79.7582C79.3717 80.4967 79.8526 81.0812 80.339 81.0539C80.8254 81.0267 81.1851 80.4013 81.1565 79.6629C81.1279 78.9244 80.6878 78.3399 80.2028 78.3658C79.7178 78.3917 79.3458 79.0539 79.3853 79.7582Z" fill="#263238"/>
<path d="M76.7358 80.2596C77.7362 82.4858 79.0392 84.5632 80.6079 86.4329C80.1163 86.8234 79.5452 87.1016 78.9347 87.248C78.3241 87.3944 77.689 87.4054 77.0737 87.2804L76.7358 80.2596Z" fill="#D58745"/>
<path d="M68.2461 77.6002C68.3249 77.6064 68.404 77.5921 68.4756 77.5587C68.5472 77.5253 68.609 77.4739 68.6549 77.4095C68.9518 76.9493 69.3519 76.5647 69.8236 76.2863C70.2952 76.008 70.8252 75.8435 71.3716 75.8059C71.4829 75.8026 71.5888 75.7567 71.6672 75.6776C71.7457 75.5985 71.7908 75.4924 71.7933 75.381C71.7957 75.2696 71.7553 75.1616 71.6804 75.0791C71.6055 74.9967 71.5018 74.9462 71.3907 74.938C70.6993 74.9676 70.0251 75.1626 69.4246 75.5066C68.8241 75.8506 68.3149 76.3335 67.9396 76.9149C67.9061 76.961 67.8821 77.0133 67.8689 77.0687C67.8557 77.1241 67.8536 77.1816 67.8627 77.2378C67.8719 77.294 67.892 77.3479 67.922 77.3963C67.9521 77.4447 67.9914 77.4867 68.0377 77.5198H68.0458C68.1079 77.5571 68.1755 77.5842 68.2461 77.6002Z" fill="#263238"/>
<path d="M82.8434 76.6809C82.9277 76.7074 83.0181 76.7074 83.1023 76.6809C83.204 76.6268 83.28 76.5346 83.3137 76.4245C83.3474 76.3144 83.3361 76.1954 83.2822 76.0936V76.0855C82.9609 75.4694 82.496 74.9396 81.9269 74.541C81.3578 74.1424 80.7011 73.8866 80.0123 73.7952C79.8976 73.7869 79.7843 73.8244 79.6972 73.8995C79.6102 73.9746 79.5564 74.0811 79.5477 74.1957C79.5419 74.31 79.5805 74.4222 79.6554 74.5087C79.7303 74.5953 79.8357 74.6496 79.9496 74.6603C80.4909 74.7493 81.0039 74.9634 81.4479 75.2856C81.8918 75.6077 82.2544 76.029 82.5069 76.516C82.5477 76.5663 82.5989 76.6071 82.657 76.6355C82.7151 76.664 82.7787 76.6795 82.8434 76.6809Z" fill="#263238"/>
<path d="M63.133 66.6232L64.0186 70.5743C63.3734 70.9645 62.8989 71.5835 62.6898 72.308C62.4807 73.0325 62.5524 73.8091 62.8905 74.4831C64.5172 77.7258 63.1221 83.1402 60.7433 85.4808C60.7433 85.4808 60.5185 84.0285 59.3209 84.4958C58.1233 84.9631 59.216 92.5342 61.9763 95.9213C58.5434 92.8422 55.9688 88.9245 54.5046 84.5516C51.8764 77.3579 51.7048 71.9027 52.9391 68.8971L63.133 66.6232Z" fill="#263238"/>
<path d="M53.4138 86.023C54.5304 88.0352 56.3997 89.5223 58.6115 90.158C61.5462 90.9755 63.0136 88.3514 62.207 85.5775C61.4658 83.1251 59.057 79.6454 56.1073 80.0745C55.464 80.1686 54.8546 80.4228 54.3352 80.8139C53.8158 81.205 53.403 81.7203 53.1348 82.3126C52.8666 82.9049 52.7516 83.5551 52.8003 84.2034C52.8491 84.8518 53.06 85.4775 53.4138 86.023Z" fill="#EBB376"/>
<path d="M64.0123 70.5796C64.0123 70.5796 73.8778 74.0784 79.4897 68.867C85.1017 63.6557 78.6178 56.6309 78.6178 56.6309C77.256 58.0264 75.4419 58.8914 73.5004 59.071C70.3599 59.2945 63.0926 57.4075 57.2491 60.379C51.4055 63.3505 49.2106 71.7827 54.565 75.6071L64.0123 70.5796Z" fill="#263238"/>
<path d="M71.8689 88.5597C72.3781 89.3421 73.129 89.9366 74.0074 90.2526C74.8857 90.5687 75.8433 90.589 76.7342 90.3104" stroke="#263238" stroke-width="1.04844" stroke-linecap="round" stroke-linejoin="round"/>
<path d="M80.2882 111.46L78.972 117.933C78.972 117.933 86.5064 149.365 88.1277 165.671L85.3824 168.42L81.0607 165.671C81.0607 165.671 80.6751 132.47 76.8616 118.522L70.0289 112.927L75.4079 111.186L80.2882 111.46Z" fill="#407BFF"/>
<path d="M61.8478 103.395L74.9164 109.289L75.6821 104.565L80.4875 106.254C81.3251 106.549 82.039 107.118 82.5138 107.869C82.9887 108.619 83.1968 109.508 83.1047 110.391L82.5598 115.575L75.9383 111.947L72.6343 116.62L56.9362 109.058L61.8478 103.395Z" fill="#407BFF"/>
<path opacity="0.7" d="M61.8478 103.395L74.9164 109.289L75.6821 104.565L80.4875 106.254C81.3251 106.549 82.039 107.118 82.5138 107.869C82.9887 108.619 83.1968 109.508 83.1047 110.391L82.5598 115.575L75.9383 111.947L72.6343 116.62L56.9362 109.058L61.8478 103.395Z" fill="white"/>
<path d="M57.2895 108.245C57.2895 108.245 69.6211 118.28 83.5508 150.252C83.5508 150.252 84.0576 119.007 81.4335 106.753L96.6316 107.491C96.6316 107.491 107.756 132.063 102.169 185.151L106.027 211.693L89.269 218.703L85.4051 206.36L81.4362 218.486L49.123 214.162L50.8342 180.645C50.8342 180.645 43.0778 125.256 42.0519 111.901L57.2895 108.245Z" fill="#263238"/>
<path opacity="0.1" d="M106.029 211.686L89.2704 218.69L85.4038 206.353L81.435 218.479L68.9495 216.807L49.1149 214.152L49.9678 197.504L50.833 180.641C50.833 180.641 50.491 178.264 49.9678 174.374C49.3997 170.303 48.6149 164.564 47.7511 158.169C47.3301 155.019 46.8859 151.711 46.4309 148.359C45.9649 144.824 45.499 141.23 45.0439 137.732C43.6338 126.725 42.4171 116.65 42.0465 111.896L56.2269 108.49L57.2842 108.241C57.2842 108.241 69.1443 117.895 82.7443 148.433C83.0059 149.036 83.2688 149.639 83.5413 150.253C83.5413 150.253 83.5522 149.628 83.5645 148.524C83.6203 141.805 83.6775 117.276 81.4254 106.757L96.629 107.497C96.629 107.497 102.929 121.403 103.669 150.902C103.748 154.392 103.759 158.11 103.68 162.045C103.52 169.039 103.054 176.738 102.167 185.152L106.029 211.686Z" fill="white"/>
<path opacity="0.2" d="M89.1545 121.038L92.6805 127.258C92.6805 127.258 89.0183 151.184 83.1284 159.507V154.561L60.3169 128.259L64.4043 121.936L54.1396 123.958C54.1396 123.958 53.1858 114.348 56.2323 108.493L57.2895 108.242C57.2895 108.242 69.6156 118.283 83.5467 150.248C83.5467 150.248 84.0576 119 81.4308 106.753C81.4308 106.753 88.6968 110.688 93.8713 121.035L89.1545 121.038Z" fill="white"/>
<path opacity="0.2" d="M103.689 162.038C99.8345 161.458 94.6367 160.481 88.1324 158.865C88.1324 158.865 68.5404 171.567 59.7035 173.092C55.5766 173.807 52.4158 174.194 49.9702 174.377C49.402 170.306 48.6172 164.567 47.7535 158.172C47.3325 155.022 46.8883 151.714 46.4332 148.362L53.1774 126.427L70.0295 146.93L82.7534 148.429L83.5709 148.52L103.675 150.898C103.757 154.385 103.768 158.103 103.689 162.038Z" fill="black"/>
<path d="M96.6347 107.495C103.338 109.065 124.032 138.4 123.431 150.425C122.83 162.45 70.8707 156.12 70.8707 156.12L72.2332 150.252L103.11 139.897C102.674 134.764 101.964 129.657 100.984 124.6C99.871 118.818 98.4188 113.106 96.6347 107.495Z" fill="#263238"/>
<path opacity="0.1" d="M123.429 150.428C123.111 156.921 107.816 158.057 93.8171 157.729C89.2924 157.627 84.9135 157.376 81.2063 157.091C75.1229 156.638 70.8707 156.114 70.8707 156.114L72.2236 150.246L82.987 146.641L103.108 139.899C102.669 134.766 101.96 129.661 100.982 124.604C100.891 124.104 100.789 123.625 100.687 123.136C99.6233 117.851 98.2716 112.628 96.6374 107.49C103.335 109.07 124.035 138.4 123.429 150.428Z" fill="white"/>
<path opacity="0.2" d="M112.033 139.807C106.79 146.57 100.663 152.597 93.8154 157.729C89.2907 157.627 84.9118 157.376 81.2045 157.091C80.5298 154.874 80.2116 152.564 80.2617 150.246L82.9784 146.641L103.106 139.899C102.667 134.766 101.958 129.661 100.98 124.604C100.889 124.104 100.787 123.625 100.685 123.136L100.787 123.012C100.787 123.012 109.782 129.902 112.033 139.807Z" fill="black"/>
<path d="M75.2974 147.004C75.2974 147.004 69.1487 142.056 66.7494 141.306C64.3501 140.557 59.7014 144.155 59.7014 144.155L65.6962 152.702L75.2974 147.004Z" fill="#EBB376"/>
<path d="M102.889 145.953L112.036 139.803C112.036 139.803 105.138 134.857 104.239 134.707C103.34 134.558 98.8396 139.803 98.8396 139.803L102.889 145.953Z" fill="#EBB376"/>
<path d="M42.0526 111.907C33.1612 116.267 45.8838 158.489 56.9169 167.067C67.95 175.645 105.393 145.876 105.393 145.876L99.7401 137.95C99.7401 137.95 70.4392 148.159 66.6448 147.207C62.8504 146.254 52.4753 124.301 49.1142 119.233C46.8975 116.022 44.0617 113.286 40.7732 111.186" fill="#263238"/>
<path opacity="0.1" d="M42.0526 111.907C33.1612 116.267 45.8838 158.489 56.9169 167.067C67.95 175.645 105.393 145.876 105.393 145.876L99.7401 137.95C99.7401 137.95 70.4392 148.159 66.6448 147.207C62.8504 146.254 52.4753 124.301 49.1142 119.233C46.8975 116.022 44.0617 113.286 40.7732 111.186" fill="white"/>
<path d="M205.273 91.3945H154.711C152.982 91.3945 151.324 90.7076 150.102 89.485C148.879 88.2624 148.192 86.6042 148.192 84.8752C148.192 84.0189 148.36 83.171 148.688 82.3799C149.016 81.5888 149.496 80.8699 150.101 80.2644C150.707 79.6589 151.425 79.1786 152.216 78.8509C153.007 78.5232 153.855 78.3545 154.711 78.3545H205.273C206.13 78.3545 206.977 78.5232 207.769 78.8509C208.56 79.1786 209.278 79.6589 209.884 80.2644C210.489 80.8699 210.969 81.5888 211.297 82.3799C211.624 83.171 211.793 84.0189 211.793 84.8752C211.793 85.7313 211.624 86.5791 211.296 87.37C210.969 88.161 210.489 88.8796 209.883 89.485C209.278 90.0904 208.559 90.5706 207.768 90.8982C206.977 91.2259 206.129 91.3945 205.273 91.3945Z" fill="#407BFF"/>
<path d="M228.318 106.816H150.692C150.364 106.816 150.039 106.752 149.735 106.626C149.432 106.501 149.156 106.317 148.924 106.084C148.692 105.852 148.508 105.576 148.382 105.273C148.256 104.97 148.192 104.644 148.192 104.316C148.192 103.988 148.257 103.663 148.382 103.359C148.508 103.056 148.692 102.78 148.924 102.548C149.157 102.316 149.432 102.132 149.735 102.006C150.039 101.881 150.364 101.816 150.692 101.816H228.318C228.981 101.816 229.616 102.08 230.085 102.549C230.553 103.018 230.817 103.653 230.817 104.316C230.817 104.644 230.752 104.969 230.627 105.273C230.501 105.576 230.317 105.852 230.085 106.084C229.853 106.316 229.578 106.5 229.274 106.626C228.971 106.752 228.646 106.816 228.318 106.816Z" fill="#407BFF"/>
<path d="M195.383 118.456H150.695C150.367 118.456 150.041 118.391 149.738 118.266C149.435 118.14 149.159 117.956 148.927 117.724C148.694 117.491 148.51 117.216 148.385 116.912C148.259 116.609 148.195 116.284 148.195 115.955C148.195 115.292 148.458 114.656 148.927 114.188C149.396 113.719 150.032 113.455 150.695 113.455H195.383C196.046 113.456 196.682 113.719 197.151 114.188C197.62 114.657 197.883 115.292 197.883 115.955C197.883 116.284 197.819 116.609 197.693 116.912C197.567 117.215 197.383 117.491 197.151 117.723C196.919 117.955 196.643 118.14 196.34 118.265C196.037 118.391 195.712 118.456 195.383 118.456Z" fill="#407BFF"/>
<path opacity="0.2" d="M173.915 149.104H154.27C153.472 149.104 152.682 148.947 151.944 148.641C151.207 148.336 150.537 147.888 149.972 147.324C149.408 146.759 148.96 146.089 148.655 145.352C148.349 144.614 148.192 143.824 148.192 143.026C148.192 141.414 148.832 139.868 149.972 138.728C151.112 137.588 152.658 136.948 154.27 136.948H173.915C175.527 136.948 177.073 137.588 178.213 138.728C179.353 139.868 179.993 141.414 179.993 143.026C179.993 143.824 179.836 144.614 179.53 145.352C179.225 146.089 178.777 146.759 178.213 147.324C177.649 147.888 176.979 148.336 176.241 148.641C175.504 148.947 174.713 149.104 173.915 149.104Z" fill="black"/>
<path d="M103.816 187.332H15.0623V409.724H103.816V187.332Z" fill="#407BFF"/>
<g opacity="0.3">
<path opacity="0.3" d="M80.5058 246.068H30.1293C29.4663 246.068 28.8306 245.805 28.3618 245.336C27.893 244.867 27.6295 244.231 27.6292 243.568C27.6295 242.905 27.893 242.27 28.3618 241.801C28.8306 241.332 29.4663 241.069 30.1293 241.068H80.5058C81.1688 241.069 81.8045 241.332 82.2733 241.801C82.7421 242.27 83.0056 242.905 83.0059 243.568C83.0056 244.231 82.7421 244.867 82.2733 245.336C81.8045 245.805 81.1688 246.068 80.5058 246.068Z" fill="white"/>
<path opacity="0.3" d="M61.1958 257.708H30.1319C29.469 257.707 28.8333 257.444 28.3645 256.975C27.8957 256.506 27.6322 255.871 27.6318 255.208C27.6322 254.545 27.8957 253.909 28.3645 253.44C28.8333 252.972 29.469 252.708 30.1319 252.708H61.1958C61.8589 252.708 62.4948 252.971 62.9636 253.44C63.4325 253.909 63.6959 254.545 63.6959 255.208C63.6959 255.871 63.4325 256.507 62.9636 256.976C62.4948 257.444 61.8589 257.708 61.1958 257.708Z" fill="white"/>
</g>
<g opacity="0.3">
<path opacity="0.3" d="M66.8813 280.883H30.1293C29.4662 280.883 28.8303 280.62 28.3614 280.151C27.8926 279.682 27.6292 279.046 27.6292 278.383C27.6295 277.72 27.893 277.084 28.3618 276.615C28.8306 276.147 29.4663 275.883 30.1293 275.883H66.8813C67.5443 275.883 68.18 276.147 68.6488 276.615C69.1176 277.084 69.3811 277.72 69.3814 278.383C69.3814 279.046 69.118 279.682 68.6492 280.151C68.1803 280.62 67.5444 280.883 66.8813 280.883Z" fill="white"/>
<path opacity="0.3" d="M74.8203 292.522H30.1319C29.4689 292.522 28.833 292.259 28.3641 291.79C27.8952 291.321 27.6318 290.685 27.6318 290.022C27.6322 289.359 27.8957 288.724 28.3645 288.255C28.8333 287.786 29.469 287.523 30.1319 287.522H74.8203C75.4834 287.522 76.1193 287.786 76.5881 288.254C77.057 288.723 77.3204 289.359 77.3204 290.022C77.3206 290.351 77.256 290.676 77.1305 290.979C77.0049 291.283 76.8207 291.558 76.5885 291.791C76.3563 292.023 76.0807 292.207 75.7773 292.332C75.4739 292.458 75.1487 292.523 74.8203 292.522Z" fill="white"/>
</g>
<g opacity="0.3">
<path opacity="0.3" d="M80.5058 315.699H30.1293C29.4663 315.698 28.8306 315.435 28.3618 314.966C27.893 314.497 27.6295 313.862 27.6292 313.199C27.6292 312.536 27.8926 311.9 28.3614 311.431C28.8303 310.962 29.4662 310.698 30.1293 310.698H80.5058C81.1689 310.698 81.8048 310.962 82.2737 311.431C82.7425 311.9 83.0059 312.536 83.0059 313.199C83.0056 313.862 82.7421 314.497 82.2733 314.966C81.8045 315.435 81.1688 315.698 80.5058 315.699Z" fill="white"/>
<path opacity="0.3" d="M47.5713 327.338H30.1319C29.469 327.338 28.8333 327.074 28.3645 326.605C27.8957 326.137 27.6322 325.501 27.6318 324.838C27.6318 324.175 27.8952 323.539 28.3641 323.07C28.833 322.601 29.4689 322.338 30.1319 322.338H47.5713C47.8997 322.338 48.2249 322.402 48.5283 322.528C48.8317 322.653 49.1073 322.838 49.3395 323.07C49.5717 323.302 49.7559 323.578 49.8814 323.881C50.007 324.184 50.0716 324.51 50.0714 324.838C50.0714 325.501 49.808 326.137 49.3391 326.606C48.8703 327.075 48.2344 327.338 47.5713 327.338Z" fill="white"/>
</g>
<g opacity="0.3">
<path opacity="0.3" d="M53.2568 350.513H30.1293C29.4663 350.512 28.8306 350.249 28.3618 349.78C27.893 349.311 27.6295 348.675 27.6292 348.013C27.6295 347.35 27.893 346.714 28.3618 346.245C28.8306 345.776 29.4663 345.513 30.1293 345.512H53.2568C53.9198 345.513 54.5555 345.776 55.0243 346.245C55.4931 346.714 55.7566 347.35 55.7569 348.013C55.7566 348.675 55.4931 349.311 55.0243 349.78C54.5555 350.249 53.9198 350.512 53.2568 350.513Z" fill="white"/>
<path opacity="0.3" d="M74.8203 362.152H30.1319C29.469 362.152 28.8333 361.888 28.3645 361.419C27.8957 360.951 27.6322 360.315 27.6318 359.652C27.6322 358.989 27.8957 358.353 28.3645 357.885C28.8333 357.416 29.469 357.152 30.1319 357.152H74.8203C75.4834 357.152 76.1193 357.415 76.5881 357.884C77.057 358.353 77.3204 358.989 77.3204 359.652C77.3204 360.315 77.057 360.951 76.5881 361.42C76.1193 361.889 75.4834 362.152 74.8203 362.152Z" fill="white"/>
</g>
<path opacity="0.3" d="M108.843 409.724H241.795L241.795 187.331L108.843 187.331L108.843 409.724Z" fill="white"/>
<g opacity="0.2">
<path opacity="0.2" d="M129.817 211.252H166.568C166.901 211.26 167.232 211.201 167.542 211.079C167.852 210.957 168.135 210.774 168.373 210.541C168.612 210.308 168.801 210.03 168.93 209.723C169.06 209.416 169.126 209.086 169.126 208.753C169.126 208.42 169.06 208.09 168.93 207.783C168.801 207.475 168.612 207.197 168.373 206.964C168.135 206.732 167.852 206.549 167.542 206.427C167.232 206.304 166.901 206.246 166.568 206.253H129.817C129.484 206.246 129.153 206.304 128.843 206.427C128.533 206.549 128.25 206.732 128.012 206.964C127.773 207.197 127.584 207.475 127.455 207.783C127.325 208.09 127.259 208.42 127.259 208.753C127.259 209.086 127.325 209.416 127.455 209.723C127.584 210.03 127.773 210.308 128.012 210.541C128.25 210.774 128.533 210.957 128.843 211.079C129.153 211.201 129.484 211.26 129.817 211.252Z" fill="black"/>
<path opacity="0.2" d="M215.617 231.777H146.167C145.839 231.777 145.514 231.842 145.211 231.968C144.907 232.093 144.632 232.277 144.399 232.51C144.167 232.742 143.983 233.017 143.858 233.321C143.732 233.624 143.667 233.949 143.667 234.277C143.667 234.606 143.732 234.931 143.858 235.234C143.983 235.538 144.167 235.813 144.399 236.045C144.632 236.277 144.907 236.462 145.211 236.587C145.514 236.713 145.839 236.778 146.167 236.778H215.617C215.945 236.778 216.27 236.713 216.574 236.587C216.877 236.462 217.153 236.277 217.385 236.045C217.617 235.813 217.801 235.538 217.927 235.234C218.052 234.931 218.117 234.606 218.117 234.277C218.117 233.949 218.052 233.624 217.927 233.321C217.801 233.017 217.617 232.742 217.385 232.51C217.153 232.277 216.877 232.093 216.574 231.968C216.27 231.842 215.945 231.777 215.617 231.777Z" fill="black"/>
<path opacity="0.2" d="M129.817 248.417H215.379C215.712 248.425 216.043 248.366 216.354 248.244C216.664 248.122 216.946 247.939 217.184 247.706C217.423 247.473 217.612 247.195 217.742 246.888C217.871 246.581 217.937 246.251 217.937 245.917C217.937 245.584 217.871 245.254 217.742 244.947C217.612 244.64 217.423 244.362 217.184 244.129C216.946 243.896 216.664 243.713 216.354 243.591C216.043 243.469 215.712 243.41 215.379 243.418H129.817C129.484 243.41 129.153 243.469 128.843 243.591C128.533 243.713 128.25 243.896 128.012 244.129C127.773 244.362 127.584 244.64 127.455 244.947C127.325 245.254 127.259 245.584 127.259 245.917C127.259 246.251 127.325 246.581 127.455 246.888C127.584 247.195 127.773 247.473 128.012 247.706C128.25 247.939 128.533 248.122 128.843 248.244C129.153 248.366 129.484 248.425 129.817 248.417Z" fill="black"/>
<path opacity="0.2" d="M215.617 257.303H129.818C129.155 257.303 128.519 257.566 128.05 258.035C127.581 258.504 127.318 259.14 127.318 259.803C127.318 260.466 127.581 261.102 128.05 261.571C128.519 262.04 129.155 262.303 129.818 262.303H215.617C216.28 262.303 216.916 262.04 217.385 261.571C217.854 261.102 218.117 260.466 218.117 259.803C218.117 259.14 217.854 258.504 217.385 258.035C216.916 257.566 216.28 257.303 215.617 257.303Z" fill="black"/>
<path opacity="0.2" d="M129.818 273.942H215.38C216.043 273.942 216.679 273.679 217.148 273.21C217.617 272.741 217.88 272.105 217.88 271.442C217.88 270.779 217.617 270.143 217.148 269.674C216.679 269.206 216.043 268.942 215.38 268.942H129.818C129.155 268.942 128.519 269.206 128.05 269.674C127.581 270.143 127.318 270.779 127.318 271.442C127.318 272.105 127.581 272.741 128.05 273.21C128.519 273.679 129.155 273.942 129.818 273.942Z" fill="black"/>
<path opacity="0.2" d="M215.617 282.829H129.818C129.155 282.829 128.519 283.092 128.05 283.561C127.581 284.03 127.318 284.666 127.318 285.329C127.318 285.992 127.581 286.628 128.05 287.097C128.519 287.566 129.155 287.829 129.818 287.829H215.617C216.28 287.829 216.916 287.566 217.385 287.097C217.854 286.628 218.117 285.992 218.117 285.329C218.117 284.666 217.854 284.03 217.385 283.561C216.916 283.092 216.28 282.829 215.617 282.829Z" fill="black"/>
<path opacity="0.2" d="M129.818 299.468H196.306C196.969 299.468 197.605 299.205 198.074 298.736C198.542 298.267 198.806 297.631 198.806 296.968C198.806 296.305 198.542 295.669 198.074 295.2C197.605 294.732 196.969 294.468 196.306 294.468H129.818C129.155 294.468 128.519 294.732 128.05 295.2C127.581 295.669 127.318 296.305 127.318 296.968C127.318 297.631 127.581 298.267 128.05 298.736C128.519 299.205 129.155 299.468 129.818 299.468Z" fill="black"/>
<path opacity="0.2" d="M146.167 324.994H215.38C216.043 324.994 216.679 324.73 217.148 324.261C217.617 323.792 217.88 323.157 217.88 322.494C217.88 321.83 217.617 321.195 217.148 320.726C216.679 320.257 216.043 319.993 215.38 319.993H146.167C145.504 319.993 144.868 320.257 144.399 320.726C143.931 321.195 143.667 321.83 143.667 322.494C143.667 323.157 143.931 323.792 144.399 324.261C144.868 324.73 145.504 324.994 146.167 324.994Z" fill="black"/>
<path opacity="0.2" d="M215.617 333.88H129.818C129.155 333.88 128.519 334.143 128.05 334.612C127.581 335.081 127.318 335.717 127.318 336.38C127.318 337.043 127.581 337.679 128.05 338.147C128.519 338.616 129.155 338.88 129.818 338.88H215.617C216.28 338.88 216.916 338.616 217.385 338.147C217.854 337.679 218.117 337.043 218.117 336.38C218.117 335.717 217.854 335.081 217.385 334.612C216.916 334.143 216.28 333.88 215.617 333.88Z" fill="black"/>
<path opacity="0.2" d="M129.818 350.519H215.38C216.043 350.519 216.679 350.256 217.148 349.787C217.617 349.318 217.88 348.682 217.88 348.019C217.88 347.356 217.617 346.72 217.148 346.251C216.679 345.782 216.043 345.519 215.38 345.519H129.818C129.155 345.519 128.519 345.782 128.05 346.251C127.581 346.72 127.318 347.356 127.318 348.019C127.318 348.682 127.581 349.318 128.05 349.787C128.519 350.256 129.155 350.519 129.818 350.519Z" fill="black"/>
<path opacity="0.2" d="M197.905 359.405H129.818C129.155 359.405 128.519 359.668 128.05 360.137C127.581 360.606 127.318 361.242 127.318 361.905C127.318 362.568 127.581 363.204 128.05 363.673C128.519 364.142 129.155 364.405 129.818 364.405H197.905C198.568 364.405 199.204 364.142 199.673 363.673C200.142 363.204 200.405 362.568 200.405 361.905C200.405 361.242 200.142 360.606 199.673 360.137C199.204 359.668 198.568 359.405 197.905 359.405Z" fill="black"/>
<path opacity="0.2" d="M215.617 384.93H129.818C129.155 384.93 128.519 385.193 128.05 385.662C127.581 386.131 127.318 386.767 127.318 387.43C127.318 388.093 127.581 388.729 128.05 389.197C128.519 389.666 129.155 389.93 129.818 389.93H215.617C216.28 389.93 216.916 389.666 217.385 389.197C217.854 388.729 218.117 388.093 218.117 387.43C218.117 386.767 217.854 386.131 217.385 385.662C216.916 385.193 216.28 384.93 215.617 384.93Z" fill="black"/>
</g>
<g opacity="0.3">
<path opacity="0.3" d="M66.8813 211.252H30.1293C29.4664 211.252 28.8307 210.989 28.3619 210.521C27.8931 210.052 27.6295 209.416 27.6292 208.754C27.6292 208.091 27.8926 207.455 28.3614 206.986C28.8303 206.517 29.4662 206.254 30.1293 206.254H66.8813C67.5444 206.254 68.1803 206.517 68.6492 206.986C69.118 207.455 69.3814 208.091 69.3814 208.754C69.3811 209.416 69.1175 210.052 68.6487 210.521C68.1799 210.989 67.5442 211.252 66.8813 211.252Z" fill="white"/>
<path opacity="0.3" d="M47.5713 222.893H30.1319C29.469 222.893 28.8333 222.629 28.3645 222.16C27.8957 221.692 27.6322 221.056 27.6318 220.393C27.6318 219.73 27.8952 219.094 28.3641 218.625C28.833 218.156 29.4689 217.893 30.1319 217.893H47.5713C47.8997 217.893 48.2249 217.957 48.5283 218.083C48.8317 218.208 49.1073 218.393 49.3395 218.625C49.5717 218.857 49.7559 219.133 49.8814 219.436C50.007 219.74 50.0716 220.065 50.0714 220.393C50.0714 221.056 49.808 221.692 49.3391 222.161C48.8703 222.63 48.2344 222.893 47.5713 222.893Z" fill="white"/>
</g>
<path d="M360.551 141.208L363.876 135.167L372.426 122.731L374.037 112.431C374.037 112.431 381.53 115.225 382.756 117.38C383.983 119.536 383.408 130.596 382.756 131.937C382.105 133.278 374.373 138.591 374.373 138.591L370.248 146.485L360.551 141.208Z" fill="#EBB376"/>
<path d="M322.622 97.916C322.622 97.916 350.314 141.396 353.549 145.288C356.785 149.181 360.377 135.167 360.377 135.167L374.391 141.275C374.391 141.275 370.44 167.853 359.659 168.932C348.877 170.011 325.881 141.629 325.881 141.629L322.622 97.916Z" fill="#263238"/>
<path opacity="0.1" d="M374.381 141.269C374.381 141.269 370.43 167.851 359.653 168.941C354.271 169.472 345.824 162.66 338.74 155.698C331.655 148.735 325.878 141.637 325.878 141.637L324.761 126.718L322.622 97.916C322.622 97.916 350.307 141.392 353.549 145.288C356.792 149.185 360.375 135.165 360.375 135.165L374.381 141.269Z" fill="white"/>
<path opacity="0.2" d="M338.74 155.702C331.641 148.74 325.878 141.641 325.878 141.641L324.761 126.723C332.864 134.307 337.848 144.639 338.74 155.702Z" fill="black"/>
<path d="M269.037 331.089L269.104 317.6C269.104 317.379 269.03 317.164 268.892 316.99C268.754 316.817 268.561 316.696 268.345 316.647L258.47 314.409C258.26 314.364 258.042 314.36 257.831 314.398C257.619 314.436 257.417 314.516 257.236 314.633C257.055 314.749 256.899 314.9 256.777 315.077C256.654 315.254 256.568 315.454 256.523 315.664C256.497 315.782 256.485 315.903 256.485 316.024C256.535 320.384 256.787 323.568 256.757 329.048C256.741 332.422 256.339 342.603 256.316 347.264C256.293 351.925 260.894 352.554 261.327 350.649C263.234 342.1 265.849 335.672 268.319 332.937C268.786 332.436 269.043 331.774 269.037 331.089Z" fill="#263238"/>
<path d="M329.249 206.902L333.609 229.749C333.609 229.749 368.037 285.474 368.018 317.648C367.996 356.08 267.741 333.907 267.741 333.907V316.212C267.741 316.212 327.665 321.362 333.064 315.351C339.619 308.055 299.213 251.588 299.213 251.588L329.249 206.902Z" fill="#263238"/>
<path opacity="0.2" d="M368.018 317.652C368.004 338.838 337.526 341.604 310.182 339.819C296.558 338.845 283.01 337.002 269.622 334.301C268.409 334.056 267.741 333.906 267.741 333.906V316.208C267.741 316.208 268.532 316.276 269.948 316.385C276.761 316.93 297.974 318.469 314.024 318.238C323.561 318.102 331.286 317.325 333.071 315.349C336.286 311.766 328.166 296.302 319.078 281.506V281.492C309.664 266.192 299.214 251.587 299.214 251.587L312.375 231.995L329.242 206.898L333.602 229.747C333.602 229.747 368.031 285.471 368.018 317.652Z" fill="white"/>
<path opacity="0.2" d="M314.024 318.242L310.182 339.823C296.558 338.85 283.011 337.006 269.622 334.305L269.949 316.389C276.761 316.93 297.974 318.47 314.024 318.242Z" fill="black"/>
<path opacity="0.2" d="M312.431 256.437C312.431 256.437 318.03 269.612 319.079 281.493C309.665 266.192 299.215 251.587 299.215 251.587L312.376 231.995L319.311 229.747C319.311 229.747 320.848 238.747 312.431 256.437Z" fill="black"/>
<path d="M303.475 449.873H289.986C289.766 449.874 289.552 449.95 289.38 450.089C289.208 450.227 289.088 450.42 289.041 450.636L286.851 460.522C286.806 460.732 286.804 460.95 286.843 461.161C286.882 461.373 286.963 461.575 287.08 461.755C287.198 461.936 287.35 462.091 287.527 462.213C287.705 462.334 287.905 462.419 288.116 462.463C288.234 462.489 288.355 462.501 288.475 462.499C292.835 462.428 296.017 462.161 301.496 462.161C304.871 462.161 315.054 462.514 319.715 462.514C324.376 462.514 324.982 457.909 323.076 457.485C314.517 455.621 308.078 453.037 305.337 450.58C304.83 450.114 304.163 449.861 303.475 449.873Z" fill="#263238"/>
<path d="M269.179 207.632C269.179 207.632 266.181 218.822 269.179 270.104C273.777 348.839 288.372 453.66 288.372 453.66L305.338 450.58C305.338 450.58 303.173 293.782 305.453 250.511C305.453 250.511 329.432 229.006 329.25 206.903C329.069 184.8 269.179 207.632 269.179 207.632Z" fill="#263238"/>
<path opacity="0.2" d="M269.179 207.632C269.179 207.632 266.181 218.822 269.179 270.104C273.777 348.839 288.372 453.66 288.372 453.66L305.338 450.58C305.338 450.58 303.173 293.782 305.453 250.511C305.453 250.511 329.432 229.006 329.25 206.903C329.069 184.8 269.179 207.632 269.179 207.632Z" fill="white"/>
<path d="M328.492 200.571H269.177V207.633L329.248 206.902L328.492 200.571Z" fill="#263238"/>
<path d="M288.242 209.929H290.36V197.396H288.242V209.929Z" fill="#263238"/>
<path d="M318.253 209.929H320.372V197.396H318.253V209.929Z" fill="#263238"/>
<path d="M301.456 207.24H312.426V199.335H301.456V207.24Z" fill="white"/>
<path opacity="0.2" d="M288.242 209.929H290.36V197.396H288.242V209.929Z" fill="white"/>
<path opacity="0.2" d="M318.253 209.929H320.372V197.396H318.253V209.929Z" fill="white"/>
<path d="M322.62 97.9136C322.62 97.9136 285.136 96.1424 257.212 103.197C257.212 103.197 269.54 165.265 269.065 200.572H328.492C328.492 200.572 332.348 134.351 322.62 97.9136Z" fill="#407BFF"/>
<path opacity="0.6" d="M328.487 200.572H269.084C269.138 196.73 269.029 192.588 268.811 188.228C268.294 178.037 267.136 166.742 265.732 155.815L265.324 152.627C264.37 145.529 263.348 138.662 262.353 132.395C259.669 115.568 257.217 103.197 257.217 103.197C285.134 96.1535 322.615 97.9111 322.615 97.9111C332.348 134.357 328.487 200.572 328.487 200.572Z" fill="white"/>
<path d="M279.099 100.386C284.481 105.276 297.667 103.468 297.667 103.468C297.667 103.468 305.898 101.215 304.169 98.6437C299.321 97.8426 296.973 95.5795 296.005 92.6857C295.474 90.8911 295.307 89.0087 295.513 87.1487C295.593 86.1116 295.73 85.0796 295.922 84.0573L279.62 71.986C281.755 79.9495 284.369 94.6067 279.099 100.386Z" fill="#EBB376"/>
<path opacity="0.2" d="M283.384 79.6541C284.031 89.4351 292.069 92.1327 296.004 92.6818C295.474 90.8872 295.306 89.0048 295.512 87.1448L283.384 79.6541Z" fill="black"/>
<path d="M274.184 46.6353C274.184 46.6353 269.637 61.3497 276.759 68.3364C283.882 75.323 288.085 47.3001 288.085 47.3001L274.184 46.6353Z" fill="#263238"/>
<path d="M298.16 83.7819C296.113 86.0091 293.392 87.5029 290.413 88.0341C287.435 88.5652 284.365 88.1043 281.674 86.722C278.158 85.0022 275.43 82.0068 274.045 78.3457C273.85 77.837 273.681 77.3185 273.539 76.7925C270.986 67.0019 272.151 50.722 282.784 46.1496C285.127 45.128 287.694 44.723 290.238 44.9732C292.783 45.2234 295.221 46.1205 297.322 47.5792C299.422 49.0378 301.114 51.0095 302.236 53.3067C303.359 55.6039 303.876 58.1502 303.737 60.7033C303.328 71.6384 303.591 78.0882 298.16 83.7819Z" fill="#EBB376"/>
<path d="M287.199 64.0991C287.278 64.9806 286.767 65.7177 286.174 65.7341C285.582 65.7504 285.109 65.027 285.084 64.14C285.06 63.2531 285.531 62.5187 286.109 62.5051C286.687 62.4915 287.174 63.1986 287.199 64.0991Z" fill="#263238"/>
<path d="M277.13 64.3022C277.209 65.1837 276.683 65.9221 276.106 65.9371C275.528 65.9521 275.04 65.23 275.016 64.343C274.991 63.4561 275.461 62.7231 276.039 62.7081C276.617 62.6931 277.11 63.4643 277.13 64.3022Z" fill="#263238"/>
<path d="M280.337 64.6753C279.331 67.4213 277.951 70.015 276.234 72.3827C276.855 72.8079 277.562 73.0921 278.304 73.2152C279.046 73.3383 279.807 73.2974 280.532 73.0952L280.337 64.6753Z" fill="#D58745"/>
<path d="M290.258 60.7743C290.163 60.7901 290.066 60.7805 289.976 60.7465C289.886 60.7126 289.807 60.6554 289.746 60.5808C289.352 60.056 288.841 59.6304 288.254 59.338C287.667 59.0457 287.019 58.8946 286.363 58.8968C286.293 58.9064 286.222 58.9018 286.155 58.8833C286.087 58.8647 286.023 58.8326 285.968 58.7889C285.913 58.7452 285.867 58.6907 285.834 58.6289C285.801 58.567 285.78 58.499 285.774 58.429C285.767 58.3589 285.775 58.2883 285.797 58.2214C285.818 58.1545 285.853 58.0926 285.899 58.0395C285.945 57.9865 286.002 57.9434 286.065 57.9127C286.128 57.8821 286.197 57.8646 286.268 57.8613C287.096 57.8371 287.918 58.0122 288.665 58.3719C289.412 58.7315 290.062 59.2653 290.559 59.9282C290.648 60.034 290.69 60.1705 290.678 60.3079C290.666 60.4452 290.601 60.5722 290.495 60.6612L290.486 60.6693C290.416 60.7155 290.339 60.7509 290.258 60.7743Z" fill="#263238"/>
<path d="M272.73 60.9174C272.633 60.9583 272.525 60.9678 272.423 60.9446C272.297 60.8891 272.199 60.7863 272.15 60.6586C272.1 60.5309 272.103 60.3888 272.158 60.2634V60.2525C272.489 59.4895 272.999 58.8172 273.644 58.2924C274.289 57.7677 275.051 57.4058 275.865 57.2374C276.002 57.2175 276.141 57.2525 276.251 57.3348C276.362 57.417 276.435 57.5398 276.455 57.6761C276.472 57.8124 276.435 57.9498 276.353 58.0597C276.271 58.1696 276.149 58.2435 276.014 58.266C275.375 58.4185 274.78 58.7179 274.277 59.1406C273.774 59.5633 273.376 60.0975 273.116 60.7007C273.071 60.7622 273.013 60.8132 272.947 60.8506C272.88 60.8879 272.806 60.9107 272.73 60.9174Z" fill="#263238"/>
<path d="M295.438 47.2194L294.718 52.0234C295.521 52.4359 296.14 53.1356 296.451 53.9834C296.763 54.8313 296.744 55.7652 296.399 56.5998C294.731 60.6123 296.859 66.9654 299.902 69.5595C299.902 69.5595 300.046 67.8046 301.518 68.2624C302.989 68.7202 302.328 77.8568 299.316 82.1417C303.157 78.1695 305.901 73.2684 307.279 67.9177C309.807 59.0972 309.548 52.5629 307.816 49.0764L295.438 47.2194Z" fill="#263238"/>
<path d="M308.701 69.5773C307.539 72.077 305.432 74.0134 302.843 74.9617C299.407 76.1879 297.429 73.1782 298.156 69.7939C298.837 66.7965 301.415 62.4367 304.979 62.6983C308.543 62.9598 310.091 66.4913 308.701 69.5773Z" fill="#EBB376"/>
<path d="M279.723 75.7713C280.173 77.0381 280.531 78.3359 280.794 79.6543C281.031 79.6543 281.269 79.6448 281.505 79.6271C284.719 79.4799 286.16 78.3491 286.784 77.1406C287.077 76.5443 287.222 75.8863 287.207 75.2223C287.211 74.8458 287.162 74.4706 287.062 74.1078C285.119 75.0816 282.989 75.6257 280.817 75.7032C280.146 75.7645 279.723 75.7713 279.723 75.7713Z" fill="#263238"/>
<path d="M280.818 75.7032L281.164 76.8409C284.191 76.6937 286.302 76.1842 287.208 75.2223C287.212 74.8458 287.164 74.4706 287.063 74.1078C285.12 75.0816 282.99 75.6257 280.818 75.7032Z" fill="white"/>
<path d="M281.506 79.6267C284.72 79.4796 286.161 78.3488 286.785 77.1403C285.562 77.2187 284.363 77.5139 283.243 78.0122C282.51 78.3561 281.903 78.9206 281.506 79.6267Z" fill="#DE5753"/>
<path d="M294.717 52.0194C294.717 52.0194 283.225 57.04 276.075 51.2905C268.925 45.541 276.075 36.5938 276.075 36.5938C277.821 38.1454 280.063 39.0245 282.399 39.0734C286.172 39.0734 294.695 36.1986 301.931 39.2532C309.167 42.3079 312.508 52.1965 306.437 57.224L294.717 52.0194Z" fill="#263238"/>
<path d="M303.034 102.667L301.458 110.423C301.458 110.423 310.485 148.082 312.428 167.618L309.138 170.914L303.961 167.618C303.961 167.618 303.497 127.835 298.93 111.128L290.744 104.425L297.187 102.339L303.034 102.667Z" fill="#407BFF"/>
<path d="M280.942 93.0032L296.601 100.065L297.518 94.4051L303.276 96.4352C304.279 96.7885 305.134 97.4697 305.703 98.3688C306.271 99.2679 306.52 100.332 306.409 101.39L305.76 107.603L297.818 103.247L293.86 108.847L275.05 99.7868L280.942 93.0032Z" fill="#407BFF"/>
<path opacity="0.7" d="M280.942 93.0032L296.601 100.065L297.518 94.4051L303.276 96.4352C304.279 96.7885 305.134 97.4697 305.703 98.3688C306.271 99.2679 306.52 100.332 306.409 101.39L305.76 107.603L297.818 103.247L293.86 108.847L275.05 99.7868L280.942 93.0032Z" fill="white"/>
<path d="M275.479 98.8152C275.479 98.8152 290.255 110.839 306.945 149.144C306.945 149.144 307.551 111.709 304.408 97.0277L322.617 97.9106C322.617 97.9106 335.948 127.352 329.251 190.952L333.875 222.752L313.793 231.151L309.16 216.363L304.404 230.898L265.689 225.721L267.732 185.567C267.732 185.567 258.438 119.203 257.209 103.201L275.479 98.8152Z" fill="#263238"/>
<path opacity="0.1" d="M333.874 222.758L313.791 231.151L309.159 216.368L304.404 230.892L289.444 228.889L265.683 225.715L266.705 205.768L267.74 185.563C267.74 185.563 266.078 173.614 264.048 158.641C262.999 150.875 261.868 142.305 260.806 134.158C259.116 120.969 257.658 108.898 257.222 103.203L274.212 99.1157L275.479 98.8159C275.479 98.8159 290.248 110.846 306.938 149.145C306.938 149.145 307.551 111.705 304.404 97.0311L322.62 97.9167C322.62 97.9167 335.945 127.346 329.255 190.958L333.874 222.758Z" fill="white"/>
<path opacity="0.2" d="M313.657 114.148L317.881 121.6C317.881 121.6 313.494 150.266 306.436 160.239V154.313L279.105 122.799L284.01 115.224L271.707 117.649C271.707 117.649 270.563 106.136 274.214 99.1197L275.481 98.82C275.481 98.82 290.25 110.85 306.94 149.149C306.94 149.149 307.553 111.709 304.406 97.0352C304.406 97.0352 313.112 101.749 319.311 114.148H313.657Z" fill="white"/>
<path opacity="0.2" d="M264.05 158.641C263.001 150.875 261.871 142.305 260.808 134.158L265.154 131.937C265.154 131.937 269.051 146.883 264.05 158.641Z" fill="black"/>
<path opacity="0.2" d="M289.447 228.889L265.686 225.714L266.707 205.768C273.969 209.297 285.782 216.708 289.447 228.889Z" fill="black"/>
<path d="M257.223 103.203C257.223 103.203 228.141 146.652 231.015 170.916C233.89 195.18 269.178 234.679 269.178 234.679L280.419 227.691C280.419 227.691 252.216 184.402 249.701 170.92C248.339 163.659 265.152 131.939 265.152 131.939C265.152 131.939 264.027 110.045 257.223 103.203Z" fill="#263238"/>
<path opacity="0.1" d="M257.223 103.203C257.223 103.203 228.141 146.652 231.015 170.916C233.89 195.18 269.178 234.679 269.178 234.679L280.419 227.691C280.419 227.691 252.216 184.402 249.701 170.92C248.339 163.659 265.152 131.939 265.152 131.939C265.152 131.939 264.027 110.045 257.223 103.203Z" fill="white"/>
<path d="M348.5 133.442L351.12 97.7174L374.38 99.3251L377.126 87.8873L382.763 90.2307L370.987 131.937L348.5 133.442Z" fill="#407BFF"/>
<path opacity="0.7" d="M348.5 133.442L351.12 97.7174L374.38 99.3251L377.126 87.8873L382.763 90.2307L370.987 131.937L348.5 133.442Z" fill="white"/>
<path d="M343.754 138.592L352.379 101.581H375.735L384 88.2346L377.172 127.834L368.908 136.495L343.754 138.592Z" fill="#407BFF"/>
<path opacity="0.2" d="M375.734 101.581L368.907 136.495L377.171 127.834L383.998 88.2346L375.734 101.581Z" fill="black"/>
<path d="M379.413 114.842C379.413 114.842 375.462 116.152 374.926 118.489C374.391 120.826 373.496 135.197 373.496 135.197C373.496 135.197 379.604 133.761 380.503 130.526C381.402 127.292 379.413 114.842 379.413 114.842Z" fill="#EBB376"/>
</svg>
